# xmcd CD Database Entry
#
# Track frame offsets:
# 150
# 17580
# 35882
# 56745
# 79271
# 106795
# 134535
# 152621
# 168792
# 195255
# 214141
# 235971
#
# Disc length: 3490 seconds
#
# Revision: 1
# Processed by: cddbd v1.4b41PL1 Copyright (c) Steve Scherf et al.
# Submitted via: tcd 2.0b
#
DISCID=990da00c
DTITLE=HOB Winter Sampler
DYEAR=1900
DGENRE=
TTITLE0=Cut You Loose
TTITLE1=I can't get you out of my mind
TTITLE2=Any Place I'm Going (Beats any place I've been)
TTITLE3=Preaching Blues
TTITLE4=Sunny Monday
TTITLE5=Got a Broken Heart
TTITLE6=It Takes a Lot To Laugh, It Takes a Train to Cry
TTITLE7=A Stand by Your Woman Man
TTITLE8=Part Time Love
TTITLE9=Look-Ka PyPy
TTITLE10=If You Want Me To Stay
TTITLE11=She's Fine
EXTD=
EXTT0=Angela Strehli\n
EXTT1=Bernard Allison
EXTT2=Otis Rush
EXTT3=Derek Trucks
EXTT4=Larry McCray
EXTT5=Walter Trout
EXTT6=Phoebe Snow (Featuring Michael McDonald)
EXTT7=Angela Strehli
EXTT8=Otis Rush
EXTT9=Derek Trucks
EXTT10=Bernard Allison
EXTT11=Luther Allison
PLAYORDER=
